<svg width="62" height="45" viewBox="0 0 62 45" fill="none" xmlns="http://www.w3.org/2000/svg">
<path d="M4.56775 33.242C3.51908 33.242 2.67208 32.9597 2.02675 32.395C1.40158 31.8102 1.089 31.0741 1.089 30.1867C1.089 29.2994 1.40158 28.5633 2.02675 27.9785C2.67208 27.3937 3.51908 27.1012 4.56775 27.1012C5.59625 27.1012 6.42308 27.3937 7.04825 27.9785C7.69358 28.5633 8.01625 29.2994 8.01625 30.1867C8.01625 31.0539 7.69358 31.7799 7.04825 32.3647C6.42308 32.9496 5.59625 33.242 4.56775 33.242ZM16.7216 18.3892C17.1855 17.6027 17.8409 16.9776 18.6879 16.5137C19.5349 16.0499 20.5331 15.818 21.6826 15.818C23.0338 15.818 24.2539 16.1709 25.3429 16.8767C26.4521 17.5826 27.3192 18.5909 27.9444 19.9017C28.5897 21.2126 28.9124 22.7452 28.9124 24.4997C28.9124 26.2542 28.5897 27.797 27.9444 29.128C27.3192 30.4388 26.4521 31.4472 25.3429 32.153C24.2539 32.8588 23.0338 33.2118 21.6826 33.2118C20.5331 33.2118 19.5349 32.9798 18.6879 32.516C17.8611 32.0522 17.2056 31.427 16.7216 30.6405V41.107H10.7926V16.0297H16.7216V18.3892ZM22.8926 24.4997C22.8926 23.3906 22.5901 22.5335 21.9851 21.9285C21.4003 21.3033 20.6743 20.9907 19.8071 20.9907C18.94 20.9907 18.2039 21.3033 17.5989 21.9285C17.0141 22.5537 16.7216 23.4107 16.7216 24.4997C16.7216 25.6089 17.0141 26.4761 17.5989 27.1012C18.2039 27.7264 18.94 28.039 19.8071 28.039C20.6743 28.039 21.4003 27.7264 21.9851 27.1012C22.5901 26.4559 22.8926 25.5887 22.8926 24.4997ZM47.5672 24.3182C47.5672 24.7821 47.5369 25.2459 47.4764 25.7097H36.2537C36.3142 26.6374 36.5663 27.3332 37.0099 27.797C37.4738 28.2407 38.0586 28.4625 38.7644 28.4625C39.7526 28.4625 40.4584 28.0188 40.8819 27.1315H47.2042C46.942 28.3012 46.4278 29.3498 45.6614 30.2775C44.9153 31.185 43.9674 31.9009 42.8179 32.4252C41.6684 32.9496 40.3979 33.2118 39.0064 33.2118C37.3326 33.2118 35.8403 32.8588 34.5294 32.153C33.2388 31.4472 32.2204 30.4388 31.4742 29.128C30.7482 27.8172 30.3852 26.2744 30.3852 24.4997C30.3852 22.7251 30.7482 21.1924 31.4742 19.9017C32.2002 18.5909 33.2085 17.5826 34.4992 16.8767C35.81 16.1709 37.3124 15.818 39.0064 15.818C40.6803 15.818 42.1625 16.1608 43.4532 16.8465C44.7439 17.5322 45.7522 18.5203 46.4782 19.811C47.2042 21.0815 47.5672 22.5839 47.5672 24.3182ZM41.5172 22.836C41.5172 22.11 41.2752 21.5453 40.7912 21.142C40.3072 20.7185 39.7022 20.5067 38.9762 20.5067C38.2502 20.5067 37.6553 20.7084 37.1914 21.1117C36.7276 21.4949 36.4251 22.0697 36.2839 22.836H41.5172ZM60.0063 27.9482V33H57.4351C53.0992 33 50.9313 30.8522 50.9313 26.5567V20.9605H48.8441V16.0297H50.9313V11.9157H56.8906V16.0297H59.9761V20.9605H56.8906V26.6475C56.8906 27.1113 56.9914 27.4441 57.1931 27.6457C57.4149 27.8474 57.7779 27.9482 58.2821 27.9482H60.0063Z" fill="white"/>
</svg>
